<svg width="34" height="39" viewBox="0 0 34 39" fill="none" xmlns="http://www.w3.org/2000/svg">
<path d="M24.25 2.25L24.3525 2.25488C24.8567 2.30621 25.25 2.73232 25.25 3.25V9.75C25.25 10.3023 24.8023 10.75 24.25 10.75H19.375C19.2092 10.75 19.0498 10.8154 18.9326 10.9326C18.8154 11.0498 18.75 11.2092 18.75 11.375V15.25H24.25C24.5579 15.25 24.8486 15.392 25.0381 15.6348C25.2275 15.8774 25.2943 16.1935 25.2197 16.4922L23.5947 22.9922C23.4834 23.4374 23.0839 23.75 22.625 23.75H18.75V35.75C18.75 36.3023 18.3023 36.75 17.75 36.75H11.25C10.6977 36.75 10.25 36.3023 10.25 35.75V23.75H6.375C5.82272 23.75 5.375 23.3023 5.375 22.75V16.25L5.37988 16.1475C5.43121 15.6433 5.85732 15.25 6.375 15.25H10.25V11.375C10.25 8.9549 11.2116 6.63412 12.9229 4.92285L13.251 4.61035C14.9248 3.0949 17.1063 2.25 19.375 2.25H24.25Z" stroke="#1E1E1E" stroke-width="2" stroke-linecap="round" stroke-linejoin="round"/>
</svg>
