<svg width="32" height="33" viewBox="0 0 32 33" fill="none" xmlns="http://www.w3.org/2000/svg">
<path d="M2.6665 9.83337L13.5531 17.454C14.4346 18.0711 14.8754 18.3796 15.3549 18.4991C15.7784 18.6047 16.2213 18.6047 16.6448 18.4991C17.1243 18.3796 17.565 18.0711 18.4466 17.454L29.3332 9.83337M9.0665 27.1667H22.9332C25.1734 27.1667 26.2935 27.1667 27.1491 26.7307C27.9018 26.3472 28.5137 25.7353 28.8972 24.9827C29.3332 24.127 29.3332 23.0069 29.3332 20.7667V12.2334C29.3332 9.99316 29.3332 8.87306 28.8972 8.01741C28.5137 7.26476 27.9018 6.65284 27.1491 6.26935C26.2935 5.83337 25.1734 5.83337 22.9332 5.83337H9.0665C6.82629 5.83337 5.70619 5.83337 4.85054 6.26935C4.09789 6.65284 3.48597 7.26476 3.10248 8.01741C2.6665 8.87306 2.6665 9.99316 2.6665 12.2334V20.7667C2.6665 23.0069 2.6665 24.127 3.10248 24.9827C3.48597 25.7353 4.09789 26.3472 4.85054 26.7307C5.70619 27.1667 6.82629 27.1667 9.0665 27.1667Z" stroke="#002217" stroke-width="2" stroke-linecap="round" stroke-linejoin="round"/>
</svg>
